<?xml version='1.0' encoding='utf-8'?>
<svg xmlns="http://www.w3.org/2000/svg" version="1.1" id="Ebene_1" x="0px" y="0px" viewBox="0 0 824 862.4" style="enable-background:new 0 0 824 862.4;"> <style type="text/css"> .st0{fill:none;} .st1{fill:#191919;} </style> <path class="st0" d="M469.7,516.4c2.7-9.8,5.1-19.8,8.2-29.5c1.8-5.6,7.1-8.2,12.2-10.4c9.7-4.1,19.9-4.4,31.3-4.5 c-2,11.8-1.5,23.4-8.3,33.3c-3.9,5.7-10.1,7.5-16.6,7.6c-8.7,0.2-17.6-1.3-25.5,4.6C470.5,517.2,470.1,516.8,469.7,516.4z"/> <path class="st0" d="M354.3,516.4c-2.7-9.8-5.1-19.8-8.2-29.5c-1.8-5.6-7.1-8.2-12.2-10.4c-9.7-4.1-19.9-4.4-31.3-4.5 c2,11.8,1.5,23.4,8.3,33.3c3.9,5.7,10.1,7.5,16.6,7.6c8.7,0.2,17.6-1.3,25.5,4.6C353.5,517.2,353.9,516.8,354.3,516.4z"/> <path class="st0" d="M462.3,637.9c-1.2-2.1-2.5-4.4-4.1-6.2c-5.9-6.3-11.7-12.8-18.3-18.4c-3.1-2.7-7.9-4.3-12-4.8 c-5.2-0.6-10.6-0.6-15.9-0.4c-5.3-0.1-10.6-0.1-15.9,0.4c-4.2,0.5-8.9,2.1-12,4.8c-6.6,5.6-12.4,12.1-18.3,18.4 c-1.7,1.8-2.9,4.1-4.1,6.2c-2.7,4.6-2.7,8.9,0.7,13.4c4.4,5.6,8.2,11.7,12.6,17.4c1.1,1.4,3.5,2.5,5.3,2.6 c10.2,0.2,20.3,0.1,30.5,0.1c0-0.1,0-0.1,0-0.2c0.4,0,0.8,0,1.2,0c0.4,0,0.8,0,1.2,0c0,0.1,0,0.1,0,0.2c10.2,0,20.3,0.1,30.5-0.1 c1.8,0,4.2-1.2,5.3-2.6c4.4-5.6,8.2-11.7,12.6-17.4C465.1,646.8,465,642.4,462.3,637.9z"/> <path class="st1" d="M819.9,127.6c-1-3.4-2.7-6.9-7.1-6.5c-4.6,0.3-5.8,4.1-6.4,7.8c-0.6,4.1-0.8,8.3-1.2,12.4 c-2.5,26-9.1,50.6-25.5,71.5c-8.2,10.5-17.8,19.9-26.7,29.8c-0.5-0.3-0.9-0.7-1.4-1c0.2-0.9,0.4-1.9,0.6-2.8 c7.9-24.6,12.1-49.8,13.4-75.5c2.5-47.5-3.5-93.8-21-138.3c-2.8-7.1-6.5-13.9-10-20.7c-1.8-3.5-5.3-5.4-8.8-3.6 c-2,1.1-3.3,4.5-3.9,7.2c-0.6,2.5,0.1,5.3,0.5,7.9c2.7,18.8,6.3,37.5,8.1,56.3c1.8,19.5,2.2,39.2,2.6,58.8c0.2,7.7-5,9.9-11.4,5.4 c-3.7-2.6-7.1-5.5-10.4-8.6c-14-13.4-27.8-26.9-41.8-40.2c-1.5-1.4-4.7-3.2-5.8-2.5c-1.7,1-3,3.8-3.4,6c-1.2,6.9,1.3,12.7,5.7,18 c15.2,18.1,30.1,36.5,45.8,54.2c11.1,12.4,14.9,26.4,13.6,42.4c-1.7,21.5-7.8,41.8-16.3,61.5c-4.9,11.3-12.5,20.5-23.1,26.8 c-3.1,1.9-7.1,2.6-10.8,2.9c-3.1,0.3-4.8-1.7-3.8-5.3c0.8-2.9,1.3-5.8,1.9-8.8c3.4-17.2,7.8-34.4,4.5-52 c-5.2-28.3-11.3-56.5-17.1-84.8c-0.5-2.4-1.1-5.2-2.6-6.9c-1.8-2-4.8-4.5-6.9-4.2c-2.1,0.2-4.4,3.5-5.4,5.9c-1,2.3-0.9,5.3-0.6,7.9 c1.3,15.8,2.3,31.6,4.4,47.2c3,22.4,3.8,44.7-0.5,67.1c-4.8,24.8-13.4,47.1-35.7,61.6c-3.2,2.1-6.3,4.4-9.5,6.4 c-13.4,8-27.8,12.9-43.4,13.8c-7.5,0.4-9.8-1.8-9.5-9.2c0.3-6.6,1-13.3,1.9-19.9c4.3-33.1,6.7-66.3,3.2-99.7 c-1.8-17.2-4.6-34-13.4-49.3c-2.1-3.7-4.5-7.8-9.5-6.2c-4.9,1.6-4.1,6.3-3.7,10.3c5.4,52.8,2.4,105.1-8.6,157.1 c-6,28.4-16.5,54.1-39.5,73.2c-1.7,1.5-4.3,2.8-6.4,2.8c-21,0.1-42.1,0-63.1,0c-21,0-42.1,0.1-63.1,0c-2.2,0-4.7-1.4-6.4-2.8 c-22.9-19.1-33.4-44.8-39.5-73.2c-11-51.9-14-104.2-8.6-157.1c0.4-4,1.2-8.7-3.7-10.3c-5-1.6-7.4,2.5-9.5,6.2 c-8.7,15.3-11.6,32.1-13.4,49.3c-3.5,33.4-1,66.6,3.2,99.7c0.8,6.6,1.6,13.2,1.9,19.9c0.4,7.4-2,9.6-9.5,9.2 c-15.6-0.9-30-5.7-43.4-13.8c-3.3-2-6.3-4.3-9.5-6.4c-22.3-14.5-30.9-36.8-35.7-61.6c-4.3-22.4-3.6-44.6-0.5-67.1 c2.1-15.7,3.1-31.5,4.4-47.2c0.2-2.6,0.4-5.6-0.6-7.9c-1.1-2.4-3.3-5.7-5.4-5.9c-2.2-0.3-5.2,2.2-6.9,4.2c-1.5,1.8-2.2,4.5-2.6,6.9 c-5.8,28.2-11.8,56.4-17.1,84.8c-3.3,17.6,1.1,34.8,4.5,52c0.6,2.9,1,5.9,1.9,8.8c1,3.6-0.7,5.6-3.8,5.3c-3.7-0.3-7.7-1-10.8-2.9 c-10.6-6.4-18.2-15.6-23.1-26.8c-8.5-19.7-14.6-40-16.3-61.5c-1.3-16,2.5-30,13.6-42.4c15.7-17.6,30.6-36.1,45.8-54.2 c4.4-5.2,6.9-11.1,5.7-18c-0.4-2.2-1.6-5.1-3.4-6c-1.1-0.6-4.3,1.1-5.8,2.5c-14,13.3-27.8,26.9-41.8,40.2c-3.2,3.1-6.7,6-10.4,8.6 c-6.4,4.5-11.5,2.3-11.4-5.4c0.4-19.6,0.8-39.3,2.6-58.8c1.8-18.9,5.4-37.6,8.1-56.3c0.4-2.6,1-5.4,0.5-7.9 c-0.6-2.6-1.9-6.1-3.9-7.2c-3.4-1.8-7,0.2-8.8,3.6c-3.5,6.8-7.2,13.5-10,20.7c-17.5,44.5-23.5,90.7-21,138.3 c1.3,25.7,5.6,51,13.4,75.5c0.3,0.9,0.4,1.9,0.6,2.8c-0.5,0.3-0.9,0.7-1.4,1c-8.9-9.9-18.5-19.4-26.7-29.8 c-16.4-20.9-23-45.5-25.5-71.5c-0.4-4.1-0.5-8.3-1.2-12.4c-0.6-3.7-1.8-7.5-6.4-7.8c-4.4-0.3-6.1,3.1-7.1,6.5 c-4.5,15.1-5,30.5-2.9,46c4.7,35.2,21.2,64.8,43.3,91.8c21.3,26.1,46.4,48,74.9,65.5c11.7,7.2,24.8,12,37.6,17.3 c43.7,18.2,87.4,36.1,131.2,54c9.9,4.1,16.1,11.5,20.5,20.8c0.5,1,0.7,2.3,0.4,3.3c-1.9,6.7-3.9,13.4-6.1,20.7 c-8.5-7.5-16.8-14.1-24.3-21.5c-16.9-16.6-37-26.4-60.2-30.2c-12-1.9-24-4.3-36-5.5c-10.1-1-14.4,3.5-12.4,13.4 c3.8,18.6,8,37.1,13.1,55.4c1.5,5.2,6.1,10.9,10.8,13.6c16.1,9.2,33.5,15.5,51.9,18.9c9.3,1.7,18.2-0.4,27.2-2.5 c7.1-1.6,14.2-3.5,22.2-5.5c0,10.5-0.3,20.3,0.1,30c0.4,12.6,0.2,25.5,2.4,37.9c2.1,11.7,6.6,22.9,10.6,34.2c1.7,4.6,2.1,8.8,1,13.5 c-13.1,55.1-26.1,110.3-39,165.4c-4.3,18.4-3.2,20.2,13.1,29.4c34.3,19.3,68.4,38.7,102.7,58.1c4.5,2.5,9.1,4.9,13.7,7.3 c4.1,2.1,8.1,3.2,12.2,3.3c4-0.1,8.1-1.2,12.2-3.3c4.6-2.4,9.2-4.8,13.7-7.3c34.2-19.3,68.4-38.8,102.7-58.1 c16.4-9.2,17.4-11,13.1-29.4c-12.9-55.2-25.9-110.3-39-165.4c-1.1-4.8-0.7-8.9,1-13.5c4-11.2,8.6-22.5,10.6-34.2 c2.2-12.4,2-25.2,2.4-37.9c0.3-9.8,0.1-19.6,0.1-30c8.1,2,15.1,3.8,22.2,5.5c8.9,2.1,17.8,4.2,27.2,2.5c18.4-3.4,35.8-9.7,51.9-18.9 c4.7-2.7,9.3-8.4,10.8-13.6c5.2-18.2,9.4-36.8,13.1-55.4c2-9.9-2.4-14.4-12.4-13.4c-12.1,1.3-24,3.6-36,5.5 c-23.2,3.7-43.3,13.5-60.2,30.2c-7.5,7.4-15.8,14-24.3,21.5c-2.2-7.4-4.2-14-6.1-20.7c-0.3-1,0-2.4,0.4-3.3 c4.4-9.3,10.6-16.8,20.5-20.8c43.8-17.9,87.6-35.9,131.2-54c12.7-5.3,25.9-10.1,37.6-17.3c28.6-17.6,53.6-39.5,74.9-65.5 c22.1-27,38.6-56.6,43.3-91.8C824.9,158.1,824.4,142.7,819.9,127.6z M353.2,517.6c-7.9-5.9-16.8-4.5-25.5-4.6 c-6.5-0.1-12.7-1.9-16.6-7.6c-6.8-9.9-6.3-21.5-8.3-33.3c11.3,0.2,21.6,0.4,31.3,4.5c5.1,2.2,10.4,4.7,12.2,10.4 c3.1,9.7,5.5,19.7,8.2,29.5C353.9,516.8,353.5,517.2,353.2,517.6z M410.8,671.3c-10.2,0-20.3,0.1-30.5-0.1c-1.8,0-4.2-1.2-5.3-2.6 c-4.4-5.6-8.2-11.7-12.6-17.4c-3.5-4.5-3.4-8.8-0.7-13.4c1.2-2.1,2.5-4.4,4.1-6.2c5.9-6.3,11.7-12.8,18.3-18.4 c3.1-2.7,7.9-4.3,12-4.8c5.2-0.6,10.6-0.6,15.9-0.5c5.3-0.1,10.6-0.1,15.9,0.5c4.2,0.5,8.9,2.1,12,4.8c6.6,5.6,12.4,12.1,18.3,18.4 c1.7,1.8,2.9,4.1,4.1,6.2c2.7,4.6,2.7,8.9-0.7,13.4c-4.4,5.6-8.2,11.7-12.6,17.4c-1.1,1.4-3.5,2.5-5.3,2.6 c-10.2,0.2-20.3,0.1-30.5,0.1 M521.3,472c-2,11.8-1.5,23.4-8.3,33.3c-3.9,5.7-10.1,7.5-16.6,7.6c-8.7,0.2-17.6-1.3-25.5,4.6 c-0.4-0.4-0.7-0.8-1.1-1.2c2.7-9.8,5.1-19.8,8.2-29.5c1.8-5.6,7.1-8.2,12.2-10.4C499.8,472.5,510,472.2,521.3,472z"/> </svg>